<svg width="24" height="24" viewBox="0 0 31 28" fill="none" xmlns="http://www.w3.org/2000/svg">
<path d="M17.0609 7H14.0436V12.6H8.00898V15.4H14.0436V21H17.0609V15.4H23.0955V12.6H17.0609V7ZM15.5523 0C7.22448 0 0.465698 6.272 0.465698 14C0.465698 21.728 7.22448 28 15.5523 28C23.8801 28 30.6388 21.728 30.6388 14C30.6388 6.272 23.8801 0 15.5523 0ZM15.5523 25.2C8.89909 25.2 3.48301 20.174 3.48301 14C3.48301 7.826 8.89909 2.8 15.5523 2.8C22.2054 2.8 27.6215 7.826 27.6215 14C27.6215 20.174 22.2054 25.2 15.5523 25.2Z" fill="#E5007D"/>
</svg>
